<svg width="128" height="128" viewBox="0 0 128 128" fill="none" xmlns="http://www.w3.org/2000/svg">
<rect width="128" height="128" fill="white"/>
<path d="M106.72 82.0267C100.16 82.0267 93.8134 80.96 87.8934 79.04C86.0267 78.4 83.9467 78.88 82.5067 80.32L74.1334 90.8267C59.04 83.6267 44.9067 70.0267 37.3867 54.4L47.7867 45.5467C49.2267 44.0534 49.6534 41.9734 49.0667 40.1067C47.0934 34.1867 46.08 27.84 46.08 21.28C46.08 18.4 43.68 16 40.8 16H22.3467C19.4667 16 16 17.28 16 21.28C16 70.8267 57.2267 112 106.72 112C110.507 112 112 108.64 112 105.707V87.3067C112 84.4267 109.6 82.0267 106.72 82.0267Z" fill="black" fill-opacity="0.54"/>
</svg>
